<mxfile host="app.diagrams.net" modified="2024-07-16T12:17:54.721Z" agent="Mozilla/5.0 (Windows NT 10.0; Win64; x64) AppleWebKit/537.36 (KHTML, like Gecko) Chrome/126.0.0.0 Safari/537.36" version="24.6.5" etag="TN8PcKwL7-yjh5uiCTKg" type="github">
  <diagram name="第 1 页" id="mSyooao3xv0tlcfKM7cY">
    <mxGraphModel>
      <root>
        <mxCell id="0" />
        <mxCell id="1" parent="0" />
      </root>
    </mxGraphModel>
  </diagram>
</mxfile>
